<svg width="26" height="28" viewBox="0 0 26 28" fill="none" xmlns="http://www.w3.org/2000/svg">
<path d="M11.75 15.25H18M8 15.25H8.01123M14.25 20.25H8M18 20.25H17.9888" stroke="#63747D" stroke-width="2" stroke-linecap="round" stroke-linejoin="round"/>
<path d="M20.5 1.5V4M5.5 1.5V4" stroke="#63747D" stroke-width="2" stroke-linecap="round" stroke-linejoin="round"/>
<path d="M1.125 14.3041C1.125 8.85742 1.125 6.1341 2.69015 4.44205C4.2553 2.75 6.77436 2.75 11.8125 2.75H14.1875C19.2256 2.75 21.7447 2.75 23.3099 4.44205C24.875 6.1341 24.875 8.85742 24.875 14.3041V14.9459C24.875 20.3926 24.875 23.1159 23.3099 24.8079C21.7447 26.5 19.2256 26.5 14.1875 26.5H11.8125C6.77436 26.5 4.2553 26.5 2.69015 24.8079C1.125 23.1159 1.125 20.3926 1.125 14.9459V14.3041Z" stroke="#63747D" stroke-width="2" stroke-linecap="round" stroke-linejoin="round"/>
<path d="M1.75 9H24.25" stroke="#63747D" stroke-width="2" stroke-linecap="round" stroke-linejoin="round"/>
</svg>
