<svg width="28" height="28" viewBox="0 0 28 28" fill="none" xmlns="http://www.w3.org/2000/svg">
<path d="M25.6469 7.92674L25.0299 6.85599C24.5633 6.0462 24.3299 5.64131 23.933 5.47985C23.536 5.3184 23.087 5.4458 22.1891 5.7006L20.6638 6.13022C20.0906 6.26242 19.4891 6.18743 18.9657 5.91849L18.5446 5.67552C18.0957 5.38804 17.7505 4.96417 17.5594 4.46593L17.142 3.2192C16.8675 2.39417 16.7302 1.98166 16.4035 1.74571C16.0768 1.50977 15.6428 1.50977 14.7749 1.50977H13.3814C12.5135 1.50977 12.0795 1.50977 11.7528 1.74571C11.4261 1.98166 11.2888 2.39417 11.0144 3.2192L10.5969 4.46593C10.4058 4.96417 10.0606 5.38804 9.61171 5.67552L9.19061 5.91849C8.66717 6.18743 8.06574 6.26242 7.49248 6.13022L5.96718 5.7006C5.06927 5.4458 4.62031 5.3184 4.22334 5.47985C3.82637 5.64131 3.59306 6.0462 3.12644 6.85599L2.50946 7.92674C2.07207 8.6858 1.85338 9.06533 1.89582 9.46936C1.93827 9.87338 2.23104 10.199 2.81658 10.8501L4.10538 12.291C4.42037 12.6898 4.64401 13.3848 4.64401 14.0096C4.64401 14.6348 4.42045 15.3295 4.10541 15.7284L2.81658 17.1693L2.81657 17.1693C2.23104 17.8205 1.93827 18.146 1.89582 18.5501C1.85338 18.9541 2.07208 19.3336 2.50946 20.0927L3.12642 21.1634L3.12643 21.1634C3.59304 21.9732 3.82637 22.3781 4.22334 22.5396C4.62032 22.701 5.06928 22.5736 5.96721 22.3188L7.49242 21.8891C8.06578 21.7569 8.66733 21.832 9.19083 22.101L9.61187 22.344C10.0606 22.6315 10.4058 23.0553 10.5969 23.5535L11.0144 24.8003C11.2888 25.6254 11.4261 26.0379 11.7528 26.2738C12.0795 26.5098 12.5135 26.5098 13.3814 26.5098H14.7749C15.6428 26.5098 16.0768 26.5098 16.4035 26.2738C16.7302 26.0379 16.8675 25.6254 17.142 24.8003L17.5594 23.5535C17.7505 23.0553 18.0957 22.6315 18.5444 22.344L18.9655 22.101C19.489 21.832 20.0905 21.7569 20.6639 21.8891L22.1891 22.3188C23.087 22.5736 23.536 22.701 23.933 22.5396C24.3299 22.3781 24.5633 21.9732 25.0299 21.1634L25.0299 21.1634L25.6469 20.0927C26.0842 19.3336 26.3029 18.9541 26.2605 18.5501C26.218 18.146 25.9253 17.8205 25.3397 17.1693L24.0509 15.7284C23.7359 15.3295 23.5123 14.6348 23.5123 14.0096C23.5123 13.3848 23.7359 12.6898 24.0509 12.291L25.3397 10.8501C25.9253 10.199 26.218 9.87338 26.2605 9.46936C26.3029 9.06533 26.0842 8.6858 25.6469 7.92674Z" stroke="#63747D" stroke-width="2" stroke-linecap="round"/>
<path d="M18.3994 14C18.3994 16.4162 16.4407 18.375 14.0244 18.375C11.6082 18.375 9.64941 16.4162 9.64941 14C9.64941 11.5838 11.6082 9.625 14.0244 9.625C16.4407 9.625 18.3994 11.5838 18.3994 14Z" stroke="#63747D" stroke-width="2"/>
</svg>
