<svg width="28" height="28" viewBox="0 0 28 28" fill="none" xmlns="http://www.w3.org/2000/svg">
<path d="M26.5 14C26.5 7.09644 20.9036 1.5 14 1.5C7.09644 1.5 1.5 7.09644 1.5 14C1.5 20.9036 7.09644 26.5 14 26.5C20.9036 26.5 26.5 20.9036 26.5 14Z" stroke="#63747D" stroke-width="2"/>
<path d="M24 6.12373C22.8316 6.20795 21.3351 6.6603 20.2974 8.00347C18.4231 10.4295 16.5488 10.6319 15.2992 9.82327C13.4249 8.61025 15 6.64545 12.8002 5.57769C11.3664 4.88178 11.1665 2.98807 11.9645 1.5" stroke="#63747D" stroke-width="2" stroke-linejoin="round"/>
<path d="M1.5 12.75C2.45312 13.5776 3.78807 14.3352 5.36093 14.3352C8.61054 14.3352 9.26046 14.9561 9.26046 17.4397C9.26046 19.9233 9.26046 19.9233 9.91039 21.7861C10.3331 22.9977 10.4809 24.2093 9.63825 25.25" stroke="#63747D" stroke-width="2" stroke-linejoin="round"/>
<path d="M26.5 15.8154C25.3911 15.1764 24 14.9135 22.5918 15.9256C19.8971 17.8623 18.0392 16.2575 17.2024 17.8612C15.9706 20.2219 20.3696 20.9639 16.5 26.5" stroke="#63747D" stroke-width="2" stroke-linejoin="round"/>
</svg>
