<svg width="26" height="26" viewBox="0 0 26 26" fill="none" xmlns="http://www.w3.org/2000/svg">
<path d="M6.75 20.5L6.75 18" stroke="#63747D" stroke-width="2" stroke-linecap="round"/>
<path d="M13 20.5L13 16.75" stroke="#63747D" stroke-width="2" stroke-linecap="round"/>
<path d="M19.25 20.5L19.25 14.25" stroke="#63747D" stroke-width="2" stroke-linecap="round"/>
<path d="M5.5 11.375C4.94772 11.375 4.5 11.8227 4.5 12.375C4.5 12.9273 4.94772 13.375 5.5 13.375V11.375ZM18.8682 6.62114C19.1423 6.14162 18.9757 5.53077 18.4961 5.25676C18.0166 4.98275 17.4058 5.14934 17.1318 5.62886L18.8682 6.62114ZM15.3372 4.88181C14.7923 4.97169 14.4234 5.4863 14.5133 6.03122C14.6032 6.57615 15.1178 6.94502 15.6628 6.85514L15.3372 4.88181ZM17.0846 5.6071L16.9218 4.62043L17.0846 5.6071ZM18.8523 6.61191L17.891 6.88732L18.8523 6.61191ZM18.2887 8.27541C18.4408 8.80634 18.9945 9.11343 19.5254 8.96133C20.0563 8.80922 20.3634 8.25551 20.2113 7.72459L18.2887 8.27541ZM18.3427 5.58943L18.8368 4.72005V4.72005L18.3427 5.58943ZM5.5 12.375V13.375C11.3572 13.375 16.1352 11.404 18.8682 6.62114L18 6.125L17.1318 5.62886C14.8648 9.59604 10.8928 11.375 5.5 11.375V12.375ZM15.5 5.86847L15.6628 6.85514L17.2473 6.59376L17.0846 5.6071L16.9218 4.62043L15.3372 4.88181L15.5 5.86847ZM18.8523 6.61191L17.891 6.88732L18.2887 8.27541L19.25 8L20.2113 7.72459L19.8137 6.3365L18.8523 6.61191ZM17.0846 5.6071L17.2473 6.59376C17.4171 6.56576 17.5508 6.54376 17.6663 6.52736C17.7821 6.51093 17.8585 6.50327 17.9119 6.50083C18.0145 6.49615 17.9483 6.5155 17.8485 6.4588L18.3427 5.58943L18.8368 4.72005C18.4782 4.5162 18.1159 4.48944 17.8207 4.50291C17.549 4.51532 17.2308 4.56947 16.9218 4.62043L17.0846 5.6071ZM18.8523 6.61191L19.8137 6.3365C19.7383 6.07337 19.6544 5.77164 19.5433 5.52559C19.4147 5.24063 19.209 4.93162 18.8368 4.72005L18.3427 5.58943L17.8485 6.4588C17.8038 6.43339 17.7636 6.39851 17.7346 6.36311C17.71 6.33314 17.7074 6.31962 17.7204 6.34844C17.7343 6.3791 17.7549 6.43277 17.7853 6.52866C17.8156 6.62442 17.8481 6.73753 17.891 6.88732L18.8523 6.61191Z" fill="#63747D"/>
<path d="M1.125 13C1.125 7.40207 1.125 4.60311 2.86405 2.86405C4.60311 1.125 7.40207 1.125 13 1.125C18.5979 1.125 21.3969 1.125 23.1359 2.86405C24.875 4.60311 24.875 7.40207 24.875 13C24.875 18.5979 24.875 21.3969 23.1359 23.1359C21.3969 24.875 18.5979 24.875 13 24.875C7.40207 24.875 4.60311 24.875 2.86405 23.1359C1.125 21.3969 1.125 18.5979 1.125 13Z" stroke="#63747D" stroke-width="2"/>
</svg>
