<svg width="28" height="28" viewBox="0 0 28 28" fill="none" xmlns="http://www.w3.org/2000/svg">
<path d="M3.72203 13.9279C2.537 11.8616 1.96481 10.1743 1.6198 8.46402C1.10953 5.93447 2.27726 3.46351 4.21173 1.88684C5.02931 1.22048 5.96654 1.44815 6.45 2.3155L7.54148 4.27364C8.40661 5.82571 8.83918 6.60174 8.75338 7.42449C8.66758 8.24724 8.08421 8.91733 6.91747 10.2575L3.72203 13.9279ZM3.72203 13.9279C6.12063 18.1103 9.8848 21.8766 14.0721 24.278M14.0721 24.278C16.1384 25.463 17.8257 26.0352 19.536 26.3802C22.0655 26.8905 24.5365 25.7227 26.1132 23.7883C26.7795 22.9707 26.5519 22.0335 25.6845 21.55L23.7264 20.4585C22.1743 19.5934 21.3983 19.1608 20.5755 19.2466C19.7528 19.3324 19.0827 19.9158 17.7425 21.0825L14.0721 24.278Z" stroke="#63747D" stroke-width="2" stroke-linejoin="round"/>
<path d="M15.5336 12.4664L24 4M15.5336 12.4664C16.1652 13.098 19.1443 12.4792 20.0438 12.4664M15.5336 12.4664C14.902 11.8348 15.5208 8.8557 15.5336 7.95615" stroke="#63747D" stroke-width="2" stroke-linecap="round" stroke-linejoin="round"/>
</svg>
