<svg width="28" height="24" viewBox="0 0 28 24" fill="none" xmlns="http://www.w3.org/2000/svg">
<path d="M17.125 12C17.125 13.7259 15.7259 15.125 14 15.125C12.2741 15.125 10.875 13.7259 10.875 12C10.875 10.2741 12.2741 8.875 14 8.875C15.7259 8.875 17.125 10.2741 17.125 12Z" stroke="#63747D" stroke-width="2"/>
<path d="M22.75 10.927C22.3436 10.8682 21.9263 10.8233 21.5 10.7935M6.5 13.2068C6.07371 13.177 5.65639 13.1321 5.25 13.0733" stroke="#63747D" stroke-width="2" stroke-linecap="round" stroke-linejoin="round"/>
<path d="M14 21.375C12.3343 22.153 10.1463 22.625 7.75 22.625C6.4176 22.625 5.14961 22.4791 4 22.2158C2.12447 21.7862 1.5 20.658 1.5 18.7325V5.26746C1.5 4.03643 2.80004 3.19091 4 3.46575C5.14961 3.72907 6.4176 3.875 7.75 3.875C10.1463 3.875 12.3343 3.40295 14 2.625C15.6657 1.84705 17.8537 1.375 20.25 1.375C21.5824 1.375 22.8504 1.52093 24 1.78425C25.9772 2.2371 26.5 3.40045 26.5 5.26746V18.7325C26.5 19.9636 25.2 20.8091 24 20.5342C22.8504 20.2709 21.5824 20.125 20.25 20.125C17.8537 20.125 15.6657 20.597 14 21.375Z" stroke="#63747D" stroke-width="2"/>
</svg>
