<svg width="30" height="22" viewBox="0 0 30 22" fill="none" xmlns="http://www.w3.org/2000/svg">
<path d="M25.9676 18.5C26.9042 18.5 27.6492 17.9106 28.3181 17.0864C29.6874 15.3993 27.4392 14.051 26.5817 13.3908C25.71 12.7195 24.7368 12.3393 23.75 12.25M22.5 9.75C24.2259 9.75 25.625 8.35089 25.625 6.625C25.625 4.89911 24.2259 3.5 22.5 3.5" stroke="#63747D" stroke-width="2" stroke-linecap="round"/>
<path d="M4.03245 18.5C3.09582 18.5 2.35083 17.9106 1.68193 17.0864C0.312611 15.3993 2.56084 14.051 3.41831 13.3908C4.28997 12.7195 5.26323 12.3393 6.25 12.25M6.875 9.75C5.14911 9.75 3.75 8.35089 3.75 6.625C3.75 4.89911 5.14911 3.5 6.875 3.5" stroke="#63747D" stroke-width="2" stroke-linecap="round"/>
<path d="M10.1048 14.889C8.82753 15.6787 5.47873 17.2914 7.51837 19.3093C8.51472 20.295 9.6244 21 11.0195 21H18.9805C20.3756 21 21.4853 20.295 22.4816 19.3093C24.5213 17.2914 21.1725 15.6787 19.8952 14.889C16.9002 13.037 13.0998 13.037 10.1048 14.889Z" stroke="#63747D" stroke-width="2" stroke-linecap="round" stroke-linejoin="round"/>
<path d="M19.375 5.375C19.375 7.79125 17.4162 9.75 15 9.75C12.5838 9.75 10.625 7.79125 10.625 5.375C10.625 2.95875 12.5838 1 15 1C17.4162 1 19.375 2.95875 19.375 5.375Z" stroke="#63747D" stroke-width="2"/>
</svg>
