<svg width="26" height="28" viewBox="0 0 26 28" fill="none" xmlns="http://www.w3.org/2000/svg">
<path d="M4.44796 13.3638C4.35612 15.1088 4.4617 16.9662 2.90267 18.1355C2.17705 18.6797 1.75 19.5338 1.75 20.4408C1.75 21.6885 2.72725 22.75 4 22.75H22C23.2727 22.75 24.25 21.6885 24.25 20.4408C24.25 19.5338 23.823 18.6797 23.0973 18.1355C21.5383 16.9662 21.6439 15.1088 21.552 13.3638C21.3126 8.81528 17.5548 5.25 13 5.25C8.44522 5.25 4.68735 8.81528 4.44796 13.3638Z" stroke="#63747D" stroke-width="2" stroke-linecap="round" stroke-linejoin="round"/>
<path d="M11.125 2.90625C11.125 3.94178 11.9645 5.25 13 5.25C14.0355 5.25 14.875 3.94178 14.875 2.90625C14.875 1.87072 14.0355 1.5 13 1.5C11.9645 1.5 11.125 1.87072 11.125 2.90625Z" stroke="#63747D" stroke-width="2"/>
<path d="M16.75 22.75C16.75 24.8211 15.0711 26.5 13 26.5C10.9289 26.5 9.25 24.8211 9.25 22.75" stroke="#63747D" stroke-width="2" stroke-linecap="round" stroke-linejoin="round"/>
</svg>
