<svg width="16" height="16" viewBox="0 0 16 16" fill="none" xmlns="http://www.w3.org/2000/svg">
<path d="M3.45354 10.1975C2.61516 10.6889 0.416971 11.6923 1.75582 12.9479C2.40983 13.5612 3.13823 13.9999 4.05401 13.9999H9.27963C10.1954 13.9999 10.9238 13.5612 11.5778 12.9479C12.9167 11.6923 10.7185 10.6889 9.88009 10.1975C7.91409 9.04517 5.41954 9.04517 3.45354 10.1975Z" stroke="#5F5D6B" stroke-linecap="round" stroke-linejoin="round"/>
<path d="M9.33333 4.66667C9.33333 6.13943 8.1394 7.33333 6.66667 7.33333C5.19391 7.33333 4 6.13943 4 4.66667C4 3.19391 5.19391 2 6.66667 2C8.1394 2 9.33333 3.19391 9.33333 4.66667Z" stroke="#5F5D6B"/>
<path d="M13.0812 3.04384C13.2303 2.88236 13.3048 2.80163 13.384 2.75453C13.575 2.6409 13.8103 2.63737 14.0046 2.74521C14.0851 2.78991 14.1619 2.86837 14.3155 3.0253C14.4691 3.18223 14.546 3.26069 14.5897 3.34293C14.6952 3.54137 14.6918 3.78171 14.5806 3.97689C14.5344 4.05778 14.4554 4.1339 14.2974 4.28615L12.4166 6.09761C12.1171 6.38612 11.9673 6.53038 11.7801 6.60349C11.5929 6.67661 11.3872 6.67121 10.9756 6.66046L10.9196 6.659C10.7943 6.65572 10.7316 6.65409 10.6952 6.61275C10.6588 6.57143 10.6638 6.50761 10.6737 6.37998L10.6791 6.31068C10.7071 5.95145 10.7211 5.77185 10.7912 5.61039C10.8614 5.44893 10.9824 5.31784 11.2244 5.05565L13.0812 3.04384Z" stroke="#5F5D6B" stroke-linejoin="round"/>
</svg>
