<svg width="30" height="30" viewBox="0 0 30 30" fill="none" xmlns="http://www.w3.org/2000/svg">
<g clip-path="url(#clip0_1158_2429)">
<path d="M8.75 0H5C3.67392 0 2.40215 0.526784 1.46447 1.46447C0.526784 2.40215 0 3.67392 0 5L0 8.75C0 10.0761 0.526784 11.3479 1.46447 12.2855C2.40215 13.2232 3.67392 13.75 5 13.75H8.75C10.0761 13.75 11.3479 13.2232 12.2855 12.2855C13.2232 11.3479 13.75 10.0761 13.75 8.75V5C13.75 3.67392 13.2232 2.40215 12.2855 1.46447C11.3479 0.526784 10.0761 0 8.75 0V0ZM11.25 8.75C11.25 9.41304 10.9866 10.0489 10.5178 10.5178C10.0489 10.9866 9.41304 11.25 8.75 11.25H5C4.33696 11.25 3.70107 10.9866 3.23223 10.5178C2.76339 10.0489 2.5 9.41304 2.5 8.75V5C2.5 4.33696 2.76339 3.70107 3.23223 3.23223C3.70107 2.76339 4.33696 2.5 5 2.5H8.75C9.41304 2.5 10.0489 2.76339 10.5178 3.23223C10.9866 3.70107 11.25 4.33696 11.25 5V8.75Z" fill="#63747D"/>
<path d="M24.9997 0H21.2497C19.9237 0 18.6519 0.526785 17.7142 1.46447C16.7765 2.40215 16.2498 3.67392 16.2498 5V8.75001C16.2498 10.0761 16.7765 11.3479 17.7142 12.2855C18.6519 13.2232 19.9237 13.75 21.2497 13.75H24.9997C26.3258 13.75 27.5976 13.2232 28.5353 12.2855C29.473 11.3479 29.9997 10.0761 29.9997 8.75001V5C29.9997 3.67392 29.473 2.40215 28.5353 1.46447C27.5976 0.526785 26.3258 0 24.9997 0V0ZM27.4997 8.75001C27.4997 9.41305 27.2363 10.0489 26.7675 10.5178C26.2987 10.9866 25.6628 11.25 24.9997 11.25H21.2497C20.5867 11.25 19.9508 10.9866 19.482 10.5178C19.0131 10.0489 18.7498 9.41305 18.7498 8.75001V5C18.7498 4.33696 19.0131 3.70108 19.482 3.23224C19.9508 2.76339 20.5867 2.5 21.2497 2.5H24.9997C25.6628 2.5 26.2987 2.76339 26.7675 3.23224C27.2363 3.70108 27.4997 4.33696 27.4997 5V8.75001Z" fill="#63747D"/>
<path d="M8.75 16.25H5C3.67392 16.25 2.40215 16.7768 1.46447 17.7145C0.526784 18.6522 0 19.9239 0 21.25L0 25C0 26.3261 0.526784 27.5979 1.46447 28.5356C2.40215 29.4732 3.67392 30 5 30H8.75C10.0761 30 11.3479 29.4732 12.2855 28.5356C13.2232 27.5979 13.75 26.3261 13.75 25V21.25C13.75 19.9239 13.2232 18.6522 12.2855 17.7145C11.3479 16.7768 10.0761 16.25 8.75 16.25ZM11.25 25C11.25 25.6631 10.9866 26.2989 10.5178 26.7678C10.0489 27.2366 9.41304 27.5 8.75 27.5H5C4.33696 27.5 3.70107 27.2366 3.23223 26.7678C2.76339 26.2989 2.5 25.6631 2.5 25V21.25C2.5 20.587 2.76339 19.9511 3.23223 19.4822C3.70107 19.0134 4.33696 18.75 5 18.75H8.75C9.41304 18.75 10.0489 19.0134 10.5178 19.4822C10.9866 19.9511 11.25 20.587 11.25 21.25V25Z" fill="#63747D"/>
<path d="M24.9997 16.25H21.2497C19.9237 16.25 18.6519 16.7768 17.7142 17.7145C16.7765 18.6522 16.2498 19.9239 16.2498 21.25V25C16.2498 26.3261 16.7765 27.5979 17.7142 28.5356C18.6519 29.4732 19.9237 30 21.2497 30H24.9997C26.3258 30 27.5976 29.4732 28.5353 28.5356C29.473 27.5979 29.9997 26.3261 29.9997 25V21.25C29.9997 19.9239 29.473 18.6522 28.5353 17.7145C27.5976 16.7768 26.3258 16.25 24.9997 16.25ZM27.4997 25C27.4997 25.6631 27.2363 26.2989 26.7675 26.7678C26.2987 27.2366 25.6628 27.5 24.9997 27.5H21.2497C20.5867 27.5 19.9508 27.2366 19.482 26.7678C19.0131 26.2989 18.7498 25.6631 18.7498 25V21.25C18.7498 20.587 19.0131 19.9511 19.482 19.4822C19.9508 19.0134 20.5867 18.75 21.2497 18.75H24.9997C25.6628 18.75 26.2987 19.0134 26.7675 19.4822C27.2363 19.9511 27.4997 20.587 27.4997 21.25V25Z" fill="#63747D"/>
</g>
<defs>
<clipPath id="clip0_1158_2429">
<rect width="30" height="30" fill="white"/>
</clipPath>
</defs>
</svg>
