<svg width="20" height="22" viewBox="0 0 20 22" fill="none" xmlns="http://www.w3.org/2000/svg">
<path d="M5 13.5L5 1M15 21L15 8.5" stroke="#63747D" stroke-width="2" stroke-linecap="round"/>
<path d="M5 21C7.07107 21 8.75 19.3211 8.75 17.25C8.75 15.1789 7.07107 13.5 5 13.5C2.92893 13.5 1.25 15.1789 1.25 17.25C1.25 19.3211 2.92893 21 5 21Z" stroke="#63747D" stroke-width="2" stroke-linecap="round"/>
<path d="M15 8.5C17.0711 8.5 18.75 6.82107 18.75 4.75C18.75 2.67893 17.0711 1 15 1C12.9289 1 11.25 2.67893 11.25 4.75C11.25 6.82107 12.9289 8.5 15 8.5Z" stroke="#63747D" stroke-width="2" stroke-linecap="round"/>
</svg>
