<svg width="30" height="30" viewBox="0 0 30 30" fill="none" xmlns="http://www.w3.org/2000/svg">
<path d="M17.5 17.5L20.625 20.625" stroke="#63747D" stroke-linejoin="round"/>
<path d="M20.5416 23.1565C19.8195 22.4344 19.8195 21.2637 20.5416 20.5416C21.2637 19.8195 22.4344 19.8195 23.1565 20.5416L26.9584 24.3435C27.6805 25.0656 27.6805 26.2363 26.9584 26.9584C26.2363 27.6805 25.0656 27.6805 24.3435 26.9584L20.5416 23.1565Z" stroke="#63747D" stroke-linecap="round"/>
<path d="M20 11.25C20 6.41751 16.0825 2.5 11.25 2.5C6.41751 2.5 2.5 6.41751 2.5 11.25C2.5 16.0825 6.41751 20 11.25 20C16.0825 20 20 16.0825 20 11.25Z" stroke="#63747D" stroke-linejoin="round"/>
</svg>
