<svg width="19" height="5" viewBox="0 0 19 5" fill="none" xmlns="http://www.w3.org/2000/svg">
<path d="M1.875 0.500244C2.90947 0.500244 3.7499 1.34166 3.75 2.37427C3.75 3.40853 2.90954 4.25024 1.875 4.25024C0.842028 4.25024 0 3.40853 0 2.37427C0.000104965 1.34166 0.842093 0.500244 1.875 0.500244ZM9.27246 0.500244C10.3052 0.500431 11.1474 1.34177 11.1475 2.37427C11.1475 3.40842 10.3053 4.25006 9.27246 4.25024C8.23792 4.25024 7.39746 3.40853 7.39746 2.37427C7.39757 1.34166 8.23799 0.500244 9.27246 0.500244ZM16.668 0.500244C17.7024 0.500244 18.5429 1.34166 18.543 2.37427C18.543 3.40853 17.7025 4.25024 16.668 4.25024C15.6352 4.24999 14.793 3.40838 14.793 2.37427C14.7931 1.34181 15.6353 0.500497 16.668 0.500244Z" fill="#63747D"/>
</svg>
