<svg width="16" height="16" viewBox="0 0 16 16" fill="none" xmlns="http://www.w3.org/2000/svg">
<path d="M13 3.66675L12.5868 10.3501C12.4813 12.0577 12.4285 12.9115 12.0005 13.5253C11.7889 13.8288 11.5164 14.0849 11.2005 14.2774C10.5614 14.6667 9.70599 14.6667 7.99516 14.6667C6.28208 14.6667 5.42554 14.6667 4.78604 14.2767C4.46987 14.0839 4.19733 13.8273 3.98579 13.5233C3.55792 12.9085 3.5063 12.0535 3.40307 10.3435L3 3.66675" stroke="#B90606" stroke-linecap="round"/>
<path d="M6 7.82324H10" stroke="#B90606" stroke-linecap="round"/>
<path d="M7 10.4363H9" stroke="#B90606" stroke-linecap="round"/>
<path d="M2 3.66659H14M10.7037 3.66659L10.2486 2.72774C9.94626 2.10409 9.7951 1.79227 9.53435 1.59779C9.47651 1.55465 9.41527 1.51628 9.35122 1.48305C9.06248 1.33325 8.71595 1.33325 8.02289 1.33325C7.31243 1.33325 6.95719 1.33325 6.66366 1.48933C6.59861 1.52392 6.53653 1.56385 6.47807 1.6087C6.2143 1.81105 6.06696 2.13429 5.77228 2.78076L5.36849 3.66659" stroke="#B90606" stroke-linecap="round"/>
</svg>
