<svg width="28" height="28" viewBox="0 0 28 28" fill="none" xmlns="http://www.w3.org/2000/svg">
<path d="M14 16.5583C11.2409 16.3004 8.41322 16.8984 5.97197 18.352C4.20351 19.405 -0.433294 21.5551 2.39083 24.2457C3.77039 25.56 5.30686 26.5 7.23859 26.5H15.25" stroke="#63747D" stroke-width="2" stroke-linecap="round" stroke-linejoin="round"/>
<path d="M18.375 7.125C18.375 10.2316 15.8566 12.75 12.75 12.75C9.6434 12.75 7.125 10.2316 7.125 7.125C7.125 4.0184 9.6434 1.5 12.75 1.5C15.8566 1.5 18.375 4.0184 18.375 7.125Z" stroke="#63747D" stroke-width="2"/>
<path d="M21.4991 16.5C19.916 16.5 18.8896 17.5095 17.6756 17.8775C17.182 18.0271 16.9352 18.1019 16.8354 18.2073C16.7355 18.3128 16.7062 18.4669 16.6477 18.7751C16.0218 22.073 17.3899 25.122 20.6528 26.3087C21.0034 26.4362 21.1786 26.5 21.5008 26.5C21.8229 26.5 21.9982 26.4362 22.3487 26.3087C25.6114 25.122 26.9782 22.073 26.3521 18.7751C26.2936 18.4668 26.2643 18.3127 26.1644 18.2072C26.0645 18.1018 25.8177 18.027 25.3242 17.8775C24.1098 17.5096 23.0822 16.5 21.4991 16.5Z" stroke="#63747D" stroke-width="2" stroke-linecap="round" stroke-linejoin="round"/>
</svg>
