<svg width="30" height="25" viewBox="0 0 30 25" fill="none" xmlns="http://www.w3.org/2000/svg">
<path d="M23.2701 22H23.8829C25.3202 22 26.4634 21.3451 27.4899 20.4295C30.0976 18.1032 23.9677 15.75 21.875 15.75M19.375 3.33596C19.6588 3.27966 19.9536 3.25 20.2559 3.25C22.5308 3.25 24.375 4.92893 24.375 7C24.375 9.07107 22.5308 10.75 20.2559 10.75C19.9536 10.75 19.6588 10.7203 19.375 10.664" stroke="#63747D" stroke-width="2" stroke-linecap="round"/>
<path d="M5.60164 17.139C4.12792 17.9287 0.263922 19.5414 2.61736 21.5593C3.76699 22.545 5.04739 23.25 6.65715 23.25H15.8428C17.4526 23.25 18.733 22.545 19.8826 21.5593C22.2361 19.5414 18.3721 17.9287 16.8984 17.139C13.4425 15.287 9.05749 15.287 5.60164 17.139Z" stroke="#63747D" stroke-width="2"/>
<path d="M16.25 6.375C16.25 9.13642 14.0114 11.375 11.25 11.375C8.48858 11.375 6.25 9.13642 6.25 6.375C6.25 3.61358 8.48858 1.375 11.25 1.375C14.0114 1.375 16.25 3.61358 16.25 6.375Z" stroke="#63747D" stroke-width="2"/>
</svg>
